<svg xmlns="http://www.w3.org/2000/svg" width="512" height="512" viewBox="0 0 512 512" version="1.1">
	<path d="M 223 26.108 C 198.299 28.273, 161.414 35.826, 156.010 39.826 C 151.457 43.196, 149 47.883, 149 53.198 C 149 58.672, 150.551 62.324, 154.405 65.924 L 157 68.349 157 96.174 L 157 124 101.184 124 C 65.268 124, 43.252 124.388, 39.434 125.088 C 31.292 126.581, 21.012 132.206, 14.470 138.748 C 8.158 145.060, 2.495 155.702, 0.965 164.130 C 0.318 167.694, 0.045 193.202, 0.221 233.630 C 0.483 293.696, 0.611 297.708, 2.362 301 C 4.728 305.448, 9.703 310.753, 13.250 312.611 L 16 314.051 16 380.342 C 16 424.021, 16.373 448.657, 17.093 452.566 C 19.602 466.181, 27.478 476.656, 39.777 482.734 L 47.396 486.500 256 486.500 L 464.604 486.500 472.223 482.734 C 484.993 476.423, 492.929 465.467, 494.973 451.326 C 495.541 447.400, 495.969 416.786, 495.980 379.276 L 496 314.051 498.825 312.590 C 502.700 310.586, 508.285 304.212, 509.862 299.993 C 510.579 298.072, 511.579 295.719, 512.083 294.764 C 513.265 292.525, 513.310 165.690, 512.129 166.420 C 511.650 166.716, 511.008 165.097, 510.703 162.821 C 509.811 156.170, 503.598 144.815, 497.530 138.748 C 490.988 132.206, 480.708 126.581, 472.566 125.088 C 468.748 124.388, 446.732 124, 410.816 124 L 355 124 355 95.894 L 355 67.788 357.520 65.806 C 365.547 59.491, 364.772 46.327, 355.990 39.826 C 350.333 35.639, 314.053 28.344, 287.500 26.055 C 273.640 24.860, 236.890 24.890, 223 26.108 M 229 58.638 C 211.994 60.203, 189.509 63.875, 178.250 66.926 L 174 68.077 174 96.039 L 174 124 256 124 L 338 124 338 96.039 L 338 68.077 333.750 66.926 C 326.552 64.975, 311.382 62.083, 299.668 60.428 C 288.890 58.904, 239.653 57.657, 229 58.638 M 0.471 231 C 0.471 266.475, 0.596 280.988, 0.750 263.250 C 0.903 245.513, 0.903 216.488, 0.750 198.750 C 0.596 181.013, 0.471 195.525, 0.471 231 M 83.205 332.805 C 83.485 359.456, 83.605 360.999, 85.592 363.679 C 93.030 373.709, 107.050 373.459, 112.802 363.193 C 115.018 359.237, 115.101 358.258, 115.041 336.865 C 115.006 324.644, 114.815 314.482, 114.616 314.283 C 114.417 314.083, 108.009 312.170, 100.377 310.031 C 92.745 307.891, 85.692 305.828, 84.705 305.446 C 83 304.786, 82.924 306.161, 83.205 332.805 M 413.500 309.424 C 405.800 311.714, 398.942 313.793, 398.260 314.044 C 397.327 314.387, 397.005 320.013, 396.958 336.792 C 396.899 358.260, 396.982 359.236, 399.198 363.193 C 404.950 373.459, 418.970 373.709, 426.408 363.679 C 428.395 360.999, 428.515 359.455, 428.795 332.929 C 428.957 317.568, 428.732 305.059, 428.295 305.131 C 427.858 305.202, 421.200 307.135, 413.500 309.424" stroke="none" fill="black" fill-rule="evenodd"/>
</svg>