<svg xmlns="http://www.w3.org/2000/svg" width="700" height="700" viewBox="0 0 700 700" version="1.1">
	<path d="M 259.217 1.449 C 244.001 5.134, 228.805 16.928, 221.789 30.500 C 215.385 42.889, 215 45.854, 215 82.854 L 215 115.919 149.250 116.212 L 83.500 116.505 75.500 119.229 C 49.629 128.038, 30.525 148.505, 23.994 174.410 C 22.044 182.144, 22 185.783, 22 338 C 22 490.356, 22.043 493.849, 23.999 501.590 C 30.782 528.427, 51.945 549.983, 79.060 557.673 C 85.223 559.421, 96.889 559.500, 350 559.500 C 603.919 559.500, 614.760 559.426, 621 557.658 C 647.978 550.013, 669.240 528.338, 676.001 501.590 C 677.957 493.849, 678 490.356, 678 338 C 678 185.783, 677.956 182.144, 676.006 174.410 C 669.381 148.131, 650.114 127.747, 623.500 118.860 L 616.500 116.522 550.750 116.221 L 485 115.919 485 82.854 C 485 45.807, 484.612 42.829, 478.175 30.500 C 473.368 21.292, 463.679 11.620, 454.397 6.762 C 441.165 -0.162, 444.053 0.022, 349.500 0.100 C 284.085 0.154, 263.283 0.465, 259.217 1.449 M 265.030 40.583 C 260.459 42.566, 258.192 44.707, 255.894 49.210 C 254.154 52.619, 254 55.484, 254 84.460 L 254 116 350 116 L 446 116 446 84.460 C 446 55.484, 445.846 52.619, 444.106 49.210 C 441.767 44.627, 439.496 42.523, 434.746 40.538 C 429.256 38.245, 270.324 38.287, 265.030 40.583 M 86.969 156.536 C 76.358 159.807, 65.566 170.805, 62.450 181.523 C 61.173 185.917, 61.010 207.206, 61.237 340.049 L 61.500 493.500 64.308 499.218 C 68.172 507.088, 74.709 513.493, 82.775 517.314 L 89.500 520.500 347.968 520.758 C 635.377 521.044, 611.737 521.600, 622.746 514.293 C 629.098 510.077, 635.508 501.500, 637.545 494.492 C 638.828 490.078, 638.990 469.006, 638.763 335.951 L 638.500 182.500 635.560 176.513 C 629.934 165.053, 618.280 156.504, 606.649 155.303 L 601.065 154.727 600.742 239.113 C 600.383 333.007, 600.783 327.369, 593.392 342.500 C 584.040 361.644, 568.401 375.339, 547.500 382.687 L 539.500 385.500 488.381 385.800 L 437.263 386.100 436.793 395.857 C 436.218 407.789, 433.518 414.457, 426.073 422.330 C 420.232 428.506, 412.889 432.539, 404.758 434.039 C 401.040 434.725, 380.420 434.992, 346.258 434.798 C 293.641 434.498, 293.485 434.491, 287.715 432.164 C 279.703 428.931, 270.904 420.581, 266.864 412.375 C 264.126 406.814, 263.627 404.577, 263.215 396.016 L 262.737 386.100 211.619 385.800 L 160.500 385.500 151.739 382.365 C 131.252 375.035, 115.616 361.245, 106.540 342.500 C 99.230 327.404, 99.617 332.893, 99.258 239.250 L 98.935 155 95.218 155.070 C 93.173 155.108, 89.461 155.768, 86.969 156.536 M 138.227 236.750 L 138.500 318.500 141.582 325.003 C 145.358 332.971, 152.143 339.943, 159.762 343.683 L 165.500 346.500 214.129 346.786 L 262.758 347.072 263.166 337.786 C 263.506 330.053, 264.083 327.412, 266.619 321.997 C 271.921 310.674, 281.891 302.651, 293.799 300.124 C 301.116 298.572, 398.884 298.572, 406.201 300.124 C 418.200 302.670, 428.002 310.508, 433.277 321.775 C 435.926 327.431, 436.491 329.976, 436.834 337.786 L 437.242 347.072 485.871 346.786 L 534.500 346.500 540.217 343.693 C 548.086 339.829, 554.493 333.291, 558.314 325.225 L 561.500 318.500 561.773 236.750 L 562.045 155 350 155 L 137.955 155 138.227 236.750 M 302 367 L 302 396 350 396 L 398 396 398 367 L 398 338 350 338 L 302 338 302 367 M 225 675.073 L 225 682.145 222.365 680.073 C 217.326 676.109, 209.543 678.229, 206.635 684.357 C 204.793 688.238, 204.522 693.613, 205.975 697.435 L 206.950 700 220.475 700 L 234 700 234 684 L 234 668 229.500 668 L 225 668 225 675.073 M 259 684 L 259 700 272.481 700 L 285.962 700 286.564 697.250 C 286.896 695.737, 287.314 694.005, 287.494 693.400 C 287.674 692.796, 287.378 690.220, 286.835 687.676 C 285.084 679.466, 276.407 675.225, 270.223 679.557 L 268 681.113 268 674.557 L 268 668 263.500 668 L 259 668 259 684 M 431 675.073 L 431 682.145 428.365 680.073 C 423.326 676.109, 415.543 678.229, 412.635 684.357 C 410.793 688.238, 410.522 693.613, 411.975 697.435 L 412.950 700 426.475 700 L 440 700 440 684 L 440 668 435.500 668 L 431 668 431 675.073 M 505 671.500 C 505 674.981, 505.024 675, 509.500 675 C 513.976 675, 514 674.981, 514 671.500 C 514 668.019, 513.976 668, 509.500 668 C 505.024 668, 505 668.019, 505 671.500 M 605 671.500 C 605 674.981, 605.024 675, 609.500 675 C 613.976 675, 614 674.981, 614 671.500 C 614 668.019, 613.976 668, 609.500 668 C 605.024 668, 605 668.019, 605 671.500 M 34.421 670.833 C 24.997 675.260, 21.425 687.187, 26.554 697.105 L 28.051 700 41.526 700 C 54.333 700, 55 699.901, 55 698 C 55 695.607, 55.145 695.624, 50.654 697.500 C 41.287 701.414, 33.994 696.903, 34.004 687.203 C 34.014 676.992, 41.712 673.656, 53.750 678.648 C 54.613 679.006, 55 678.067, 55 675.619 C 55 671.173, 52.877 669.893, 44.574 669.329 C 40.019 669.020, 37.480 669.396, 34.421 670.833 M 350.111 672.250 C 349.649 673.487, 347.452 679.450, 345.228 685.500 C 343.004 691.550, 340.909 697.188, 340.571 698.028 C 340.035 699.361, 342.061 699.556, 356.509 699.556 C 367.576 699.556, 372.968 699.208, 372.781 698.506 C 372.626 697.929, 370.250 691.279, 367.500 683.728 L 362.500 670 356.725 670 C 351.652 670, 350.849 670.273, 350.111 672.250 M 568 685 L 568 700 573 700 L 578 700 578 695.792 L 578 691.584 582.288 695.792 C 586.365 699.793, 586.868 699.999, 592.538 699.981 L 598.500 699.962 591.750 693.894 C 588.038 690.556, 584.988 687.302, 584.973 686.663 C 584.958 686.023, 588.670 682.028, 593.223 677.785 L 601.500 670.070 596.090 670.035 C 590.860 670.001, 590.479 670.190, 584.590 675.750 L 578.500 681.500 578.200 675.750 L 577.900 670 572.950 670 L 568 670 568 685 M 152 674.430 C 152 677.227, 151.584 677.920, 149.750 678.180 C 147.988 678.431, 147.500 679.150, 147.500 681.500 C 147.500 683.850, 147.988 684.569, 149.750 684.820 C 151.853 685.118, 152 685.625, 152 692.570 L 152 700 160.250 699.850 C 164.787 699.768, 167.150 699.503, 165.500 699.262 C 160.834 698.579, 160 697.308, 160 690.878 L 160 685 164.500 685 C 168.976 685, 169 684.981, 169 681.500 C 169 678.019, 168.976 678, 164.500 678 C 160.024 678, 160 677.981, 160 674.500 C 160 671.083, 159.905 671, 156 671 C 152.111 671, 152 671.095, 152 674.430 M 61 689 L 61 700 65.500 700 L 70 700 70 694.155 C 70 686.858, 72.057 684.423, 77.477 685.303 L 81 685.874 81 681.937 C 81 678.155, 80.871 678, 77.723 678 C 75.920 678, 73.491 678.669, 72.324 679.486 C 70.448 680.800, 70.137 680.800, 69.633 679.486 C 69.259 678.511, 67.675 678, 65.031 678 L 61 678 61 689 M 89.299 679.960 C 83.759 683.337, 81.471 690.848, 83.975 697.435 C 84.866 699.778, 85.449 700, 90.698 700 C 96.185 700, 96.344 699.929, 94.223 698.443 C 93 697.587, 92 696.237, 92 695.443 C 92 694.281, 93.963 694, 102.079 694 L 112.159 694 111.517 690.750 C 110.343 684.805, 108.796 682.037, 105.514 680.009 C 101.222 677.356, 93.606 677.333, 89.299 679.960 M 119.750 678.641 C 118.525 678.995, 118 680.168, 118 682.549 C 118 685.787, 118.123 685.904, 120.565 684.975 C 123.436 683.884, 130.002 683.680, 132.418 684.607 C 133.288 684.941, 134 685.788, 134 686.490 C 134 687.355, 131.859 687.903, 127.365 688.189 C 121.641 688.554, 120.406 688.989, 118.365 691.362 C 117.036 692.907, 116 695.402, 116 697.056 C 116 699.983, 116.034 700, 121.750 699.921 C 124.912 699.878, 126.938 699.615, 126.250 699.338 C 124.332 698.564, 124.766 695.195, 126.934 694.035 C 127.998 693.466, 130.023 693, 131.434 693 C 134.453 693, 134.872 695.379, 132.345 698.171 C 130.758 699.924, 130.949 700, 136.951 700 L 143.212 700 142.849 692.016 C 142.525 684.880, 142.194 683.739, 139.727 681.273 C 137.236 678.781, 136.217 678.495, 129.234 678.325 C 124.980 678.221, 120.713 678.363, 119.750 678.641 M 178.299 679.960 C 172.759 683.337, 170.471 690.848, 172.975 697.435 C 173.866 699.778, 174.449 700, 179.698 700 C 185.185 700, 185.344 699.929, 183.223 698.443 C 182 697.587, 181 696.237, 181 695.443 C 181 694.281, 182.963 694, 191.079 694 L 201.159 694 200.517 690.750 C 199.343 684.805, 197.796 682.037, 194.514 680.009 C 190.222 677.356, 182.606 677.333, 178.299 679.960 M 290.985 678.693 C 290.976 679.137, 292.889 684.108, 295.235 689.740 L 299.500 699.981 306.082 699.990 L 312.664 700 316.343 690.250 C 318.367 684.888, 320.018 679.938, 320.011 679.250 C 320.004 678.464, 318.540 678, 316.062 678 L 312.124 678 309.357 686.495 C 307.836 691.168, 306.266 694.655, 305.869 694.245 C 305.473 693.835, 303.818 690.125, 302.192 686 L 299.235 678.500 295.118 678.193 C 292.853 678.023, 290.993 678.248, 290.985 678.693 M 379 689 L 379 700 383.500 700 L 388 700 388 694.434 C 388 687.359, 389.232 685, 392.928 685 C 396.404 685, 397 686.329, 397 694.082 L 397 700 401.500 700 L 406 700 406 693.468 C 406 686.138, 404.165 680.694, 401.150 679.080 C 398.261 677.534, 393.315 677.747, 390.586 679.536 C 388.478 680.917, 388.182 680.917, 387.652 679.536 C 387.257 678.506, 385.734 678, 383.031 678 L 379 678 379 689 M 448 689 L 448 700 452.500 700 L 457 700 457 694.155 C 457 686.858, 459.057 684.423, 464.477 685.303 L 468 685.874 468 681.937 C 468 678.155, 467.871 678, 464.723 678 C 462.920 678, 460.491 678.669, 459.324 679.486 C 457.448 680.800, 457.137 680.800, 456.633 679.486 C 456.259 678.511, 454.675 678, 452.031 678 L 448 678 448 689 M 476.299 679.960 C 470.759 683.337, 468.471 690.848, 470.975 697.435 C 471.866 699.778, 472.449 700, 477.698 700 C 483.185 700, 483.344 699.929, 481.223 698.443 C 480 697.587, 479 696.237, 479 695.443 C 479 694.281, 480.963 694, 489.079 694 L 499.159 694 498.517 690.750 C 497.343 684.805, 495.796 682.037, 492.514 680.009 C 488.222 677.356, 480.606 677.333, 476.299 679.960 M 505 688.943 L 505 700 509.534 700 L 514.068 700 513.784 689.250 L 513.500 678.500 509.250 678.193 L 505 677.885 505 688.943 M 522.806 681.040 C 520.262 683.584, 519.867 684.604, 520.386 687.290 C 521.221 691.615, 524.166 693.820, 530.167 694.617 C 535.278 695.295, 537.527 697.420, 534.896 699.086 C 533.984 699.663, 535.332 699.975, 538.781 699.985 C 544.810 700.002, 545.951 698.711, 544.022 694.054 C 542.650 690.742, 541.646 690.193, 534 688.579 C 526.646 687.027, 526.335 684.494, 533.500 684.513 C 536.250 684.520, 539.513 684.888, 540.750 685.330 C 542.803 686.064, 543 685.834, 543 682.692 C 543 679.637, 542.649 679.180, 539.875 678.625 C 538.156 678.281, 534.297 678, 531.298 678 C 526.558 678, 525.449 678.397, 522.806 681.040 M 605 688.943 L 605 700 609.534 700 L 614.068 700 613.784 689.250 L 613.500 678.500 609.250 678.193 L 605 677.885 605 688.943 M 622 689 L 622 700 626.500 700 L 631 700 631 694.155 C 631 686.858, 633.057 684.423, 638.477 685.303 L 642 685.874 642 681.937 C 642 678.155, 641.871 678, 638.723 678 C 636.920 678, 634.491 678.669, 633.324 679.486 C 631.448 680.800, 631.137 680.800, 630.633 679.486 C 630.259 678.511, 628.675 678, 626.031 678 L 622 678 622 689 M 646 689 L 646 700 650.500 700 L 655 700 655 693.700 C 655 686.971, 656.041 685, 659.593 685 C 662.364 685, 663 686.695, 663 694.082 L 663 700 667.500 700 L 672 700 672 693.700 C 672 686.971, 673.041 685, 676.593 685 C 679.364 685, 680 686.695, 680 694.082 L 680 700 684.500 700 L 689 700 689 693.468 C 689 686.138, 687.165 680.694, 684.150 679.080 C 681.061 677.427, 675.776 677.832, 673.043 679.932 C 670.634 681.784, 670.540 681.783, 668.159 679.910 C 665.256 677.627, 660.257 677.431, 657.324 679.486 C 655.448 680.800, 655.137 680.800, 654.633 679.486 C 654.259 678.511, 652.675 678, 650.031 678 L 646 678 646 689 M 697.750 678.689 C 696.525 679.009, 696 680.146, 696 682.480 C 696 685.320, 696.295 685.736, 698 685.290 C 699.503 684.897, 700 683.926, 700 681.383 C 700 679.523, 699.888 678.052, 699.750 678.116 C 699.612 678.180, 698.712 678.438, 697.750 678.689 M 354.294 685.500 L 352.181 692 356.698 692 C 359.890 692, 361.079 691.634, 360.753 690.750 C 360.499 690.063, 359.515 687.138, 358.565 684.250 C 357.616 681.362, 356.742 679, 356.624 679 C 356.505 679, 355.457 681.925, 354.294 685.500 M 93.571 685.571 C 90.953 688.190, 91.763 689, 97 689 C 100.436 689, 102 688.593, 102 687.700 C 102 684.152, 96.404 682.739, 93.571 685.571 M 182.571 685.571 C 179.953 688.190, 180.763 689, 186 689 C 189.436 689, 191 688.593, 191 687.700 C 191 684.152, 185.404 682.739, 182.571 685.571 M 216 686 C 212.011 689.989, 214.460 699, 219.534 699 C 223.036 699, 225.412 694.929, 224.651 690.234 C 223.688 684.304, 219.665 682.335, 216 686 M 270.223 685.557 C 268.554 686.725, 268 688.113, 268 691.122 C 268 696.611, 269.466 699, 272.835 699 C 276.745 699, 278 697.288, 278 691.955 C 278 688.725, 277.443 686.806, 276.171 685.655 C 273.905 683.604, 273.030 683.590, 270.223 685.557 M 422 686 C 418.011 689.989, 420.460 699, 425.534 699 C 429.036 699, 431.412 694.929, 430.651 690.234 C 429.688 684.304, 425.665 682.335, 422 686 M 480.571 685.571 C 477.953 688.190, 478.763 689, 484 689 C 487.436 689, 489 688.593, 489 687.700 C 489 684.152, 483.404 682.739, 480.571 685.571 M 696.073 691.635 C 694.933 693.084, 694 695.559, 694 697.135 C 694 699.652, 694.365 700, 697 700 C 699.970 700, 700 699.944, 700 694.500 C 700 688.376, 699.133 687.744, 696.073 691.635 M 106 698.500 L 102.500 699.848 106.250 699.924 C 108.950 699.979, 110 699.580, 110 698.500 C 110 697.675, 109.888 697.034, 109.750 697.076 C 109.612 697.118, 107.925 697.759, 106 698.500 M 195 698.500 L 191.500 699.848 195.250 699.924 C 197.950 699.979, 199 699.580, 199 698.500 C 199 697.675, 198.887 697.034, 198.750 697.076 C 198.613 697.118, 196.925 697.759, 195 698.500 M 493 698.500 L 489.500 699.848 493.250 699.924 C 495.950 699.979, 497 699.580, 497 698.500 C 497 697.675, 496.887 697.034, 496.750 697.076 C 496.613 697.118, 494.925 697.759, 493 698.500 M 521 698.981 C 521 699.541, 522.425 700, 524.167 700 C 527.808 700, 527.676 699.563, 523.750 698.622 C 522.117 698.230, 521 698.376, 521 698.981" stroke="none" fill="black" fill-rule="evenodd"/>
</svg>